{
.appVersion = "3414";
.formatVersion = 3;
DisplayStrings = (
"/_corner.round 
ABCDEFGHIJKLM
NOPQRSTUVWXYZ
abcdefghijklm
nopqrstuvwxyz
0123456789
.,-.:;!@#$%^&*()[]{}///backslash |()<>

$3.00

3 * 8


",
":"
);
date = "2025-04-26 21:58:05 +0000";
familyName = "New Font";
fontMaster = (
{
id = m01;
metricValues = (
{
over = 16;
pos = 800;
},
{
over = 16;
pos = 700;
},
{
over = 16;
pos = 500;
},
{
over = -16;
},
{
over = -16;
pos = -200;
},
{
}
);
name = Regular;
}
);
glyphs = (
{
glyphname = A;
lastChange = "2025-04-26 22:15:15 +0000";
layers = (
{
hints = (
{
name = _corner.round;
origin = (0,9);
type = Corner;
},
{
name = _corner.round;
options = 2;
origin = (0,8);
scale = (-1,1);
type = Corner;
}
);
layerId = m01;
shapes = (
{
closed = 1;
nodes = (
(50,0,l),
(170,0,l),
(170,669,l),
(111,640,l),
(420,640,l),
(366,669,l),
(366,0,l),
(486,0,l),
(486,700,l),
(50,700,l)
);
},
{
closed = 1;
nodes = (
(111,383,l),
(420,383,l),
(420,443,l),
(111,443,l)
);
}
);
width = 536;
}
);
unicode = 65;
},
{
glyphname = B;
lastChange = "2025-05-04 14:06:11 +0000";
layers = (
{
background = {
shapes = (
{
ref = A;
}
);
};
hints = (
{
name = _corner.round;
origin = (0,10);
type = Corner;
},
{
name = _corner.round;
options = 2;
origin = (0,11);
scale = (-1,1);
type = Corner;
},
{
name = _corner.round;
origin = (2,1);
type = Corner;
},
{
name = _corner.round;
options = 2;
origin = (0,10);
scale = (-1,1);
type = Corner;
},
{
name = _corner.round;
origin = (0,10);
type = Corner;
},
{
name = _corner.round;
origin = (0,10);
type = Corner;
},
{
name = _corner.round;
origin = (2,1);
type = Corner;
},
{
name = _corner.round;
options = 2;
origin = (2,2);
scale = (-1,1);
type = Corner;
}
);
layerId = m01;
shapes = (
{
closed = 1;
nodes = (
(50,0,l),
(426,0,l),
(426,60,l),
(111,60,l),
(170,28,l),
(170,669,l),
(111,640,l),
(420,640,l),
(366,669,l),
(366,413,l),
(486,413,l),
(486,700,l),
(50,700,l)
);
},
{
closed = 1;
nodes = (
(111,383,l),
(420,383,l),
(420,443,l),
(111,443,l)
);
},
{
closed = 1;
nodes = (
(366,0,l),
(486,0,l),
(486,413,l),
(366,413,l)
);
}
);
width = 536;
}
);
unicode = 66;
},
{
glyphname = C;
lastChange = "2025-05-04 13:30:06 +0000";
layers = (
{
hints = (
{
name = _corner.round;
origin = (0,0);
type = Corner;
},
{
name = _corner.round;
origin = (0,15);
type = Corner;
},
{
name = _corner.round;
origin = (0,13);
type = Corner;
},
{
name = _corner.round;
origin = (0,14);
type = Corner;
},
{
name = _corner.round;
origin = (0,1);
type = Corner;
},
{
name = _corner.round;
origin = (0,2);
type = Corner;
}
);
layerId = m01;
shapes = (
{
closed = 1;
nodes = (
(50,0,l),
(486,0,l),
(486,120,l),
(366,120,l),
(366,28,l),
(425,60,l),
(112,60,l),
(170,28,l),
(170,671,l),
(112,640,l),
(425,640,l),
(366,671,l),
(366,580,l),
(486,580,l),
(486,700,l),
(50,700,l)
);
}
);
width = 536;
}
);
unicode = 67;
},
{
glyphname = D;
lastChange = "2025-05-28 21:54:56 +0000";
layers = (
{
hints = (
{
name = _corner.round;
origin = (0,1);
type = Corner;
},
{
name = _corner.round;
origin = (0,2);
type = Corner;
}
);
layerId = m01;
shapes = (
{
closed = 1;
nodes = (
(50,0,l),
(486,0,l),
(486,700,l),
(50,700,l)
);
},
{
closed = 1;
nodes = (
(170,669,l),
(109,640,l),
(426,640,l),
(366,669,l),
(366,27,l),
(426,60,l),
(109,60,l),
(170,27,l)
);
}
);
width = 536;
}
);
unicode = 68;
},
{
glyphname = E;
lastChange = "2025-05-28 21:56:09 +0000";
layers = (
{
layerId = m01;
shapes = (
{
closed = 1;
nodes = (
(50,0,l),
(486,0,l),
(486,60,l),
(113,60,l),
(170,28,l),
(170,670,l),
(113,640,l),
(486,640,l),
(486,700,l),
(50,700,l)
);
},
{
closed = 1;
nodes = (
(111,383,l),
(420,383,l),
(420,443,l),
(111,443,l)
);
}
);
width = 536;
}
);
unicode = 69;
},
{
glyphname = F;
lastChange = "2025-05-28 21:56:37 +0000";
layers = (
{
layerId = m01;
shapes = (
{
closed = 1;
nodes = (
(50,0,l),
(170,0,l),
(170,675,l),
(111,640,l),
(486,640,l),
(486,700,l),
(50,700,l)
);
},
{
closed = 1;
nodes = (
(111,383,l),
(420,383,l),
(420,443,l),
(111,443,l)
);
}
);
width = 536;
}
);
unicode = 70;
},
{
glyphname = G;
lastChange = "2025-05-28 21:57:33 +0000";
layers = (
{
hints = (
{
name = _corner.round;
origin = (0,0);
type = Corner;
},
{
name = _corner.round;
origin = (0,18);
type = Corner;
},
{
name = _corner.round;
origin = (0,1);
type = Corner;
},
{
name = _corner.round;
origin = (0,2);
type = Corner;
},
{
name = _corner.round;
origin = (0,16);
type = Corner;
},
{
name = _corner.round;
origin = (0,17);
type = Corner;
}
);
layerId = m01;
shapes = (
{
closed = 1;
nodes = (
(50,0,l),
(486,0,l),
(486,443,l),
(251,443,l),
(251,383,l),
(411,383,l),
(366,428,l),
(366,26,l),
(411,60,l),
(125,60,l),
(170,26,l),
(170,670,l),
(125,640,l),
(411,640,l),
(366,670,l),
(366,580,l),
(486,580,l),
(486,700,l),
(50,700,l)
);
}
);
width = 536;
}
);
unicode = 71;
},
{
glyphname = H;
lastChange = "2025-04-26 23:05:18 +0000";
layers = (
{
layerId = m01;
shapes = (
{
closed = 1;
nodes = (
(50,0,l),
(170,0,l),
(170,700,l),
(50,700,l)
);
},
{
closed = 1;
nodes = (
(366,0,l),
(486,0,l),
(486,700,l),
(366,700,l)
);
},
{
closed = 1;
nodes = (
(111,383,l),
(420,383,l),
(420,443,l),
(111,443,l)
);
}
);
width = 536;
}
);
unicode = 72;
},
{
glyphname = I;
lastChange = "2025-05-28 21:58:03 +0000";
layers = (
{
layerId = m01;
shapes = (
{
closed = 1;
nodes = (
(50,700,l),
(50,640,l),
(253,640,l),
(208,671,l),
(208,27,l),
(253,60,l),
(50,60,l),
(50,0,l),
(486,0,l),
(486,60,l),
(283,60,l),
(328,27,l),
(328,671,l),
(283,640,l),
(486,640,l),
(486,700,l)
);
}
);
width = 536;
}
);
unicode = 73;
},
{
glyphname = J;
lastChange = "2025-05-29 17:33:51 +0000";
layers = (
{
hints = (
{
name = _corner.round;
origin = (0,5);
type = Corner;
},
{
name = _corner.round;
origin = (0,6);
type = Corner;
},
{
name = _corner.round;
origin = (0,7);
type = Corner;
}
);
layerId = m01;
shapes = (
{
closed = 1;
nodes = (
(366,27,l),
(411,60,l),
(125,60,l),
(170,27,l),
(170,270,l),
(50,270,l),
(50,0,l),
(486,0,l),
(486,700,l),
(366,700,l)
);
}
);
width = 536;
}
);
unicode = 74;
},
{
glyphname = K;
lastChange = "2025-04-26 23:26:54 +0000";
layers = (
{
hints = (
{
name = _corner.round;
origin = (2,2);
type = Corner;
},
{
name = _corner.round;
origin = (2,2);
type = Corner;
},
{
name = _corner.round;
origin = (2,2);
type = Corner;
},
{
name = _corner.round;
origin = (3,1);
type = Corner;
}
);
layerId = m01;
shapes = (
{
closed = 1;
nodes = (
(50,0,l),
(170,0,l),
(170,700,l),
(50,700,l)
);
},
{
closed = 1;
nodes = (
(111,383,l),
(420,383,l),
(420,443,l),
(111,443,l)
);
},
{
closed = 1;
nodes = (
(366,0,l),
(486,0,l),
(486,413,l),
(366,413,l)
);
},
{
closed = 1;
nodes = (
(366,413,l),
(486,413,l),
(486,700,l),
(366,700,l)
);
}
);
width = 536;
}
);
unicode = 75;
},
{
glyphname = L;
lastChange = "2025-04-26 23:09:53 +0000";
layers = (
{
hints = (
{
name = _corner.round;
origin = (0,1);
type = Corner;
}
);
layerId = m01;
shapes = (
{
closed = 1;
nodes = (
(50,700,l),
(50,0,l),
(486,0,l),
(486,60,l),
(113,60,l),
(170,31,l),
(170,700,l)
);
}
);
width = 536;
}
);
unicode = 76;
},
{
glyphname = M;
lastChange = "2025-05-28 21:59:43 +0000";
layers = (
{
layerId = m01;
shapes = (
{
closed = 1;
nodes = (
(50,0,l),
(170,0,l),
(170,547,l),
(157,545,l),
(238,282,l),
(299,282,l),
(379,544,l),
(366,546,l),
(366,0,l),
(486,0,l),
(486,700,l),
(366,700,l),
(268,381,l),
(170,700,l),
(50,700,l)
);
}
);
width = 536;
}
);
unicode = 77;
},
{
glyphname = N;
lastChange = "2025-05-28 21:59:59 +0000";
layers = (
{
layerId = m01;
shapes = (
{
closed = 1;
nodes = (
(50,0,l),
(170,0,l),
(170,573,l),
(154,570,l),
(366,0,l),
(486,0,l),
(486,700,l),
(366,700,l),
(366,127,l),
(382,130,l),
(170,700,l),
(50,700,l)
);
}
);
width = 536;
}
);
unicode = 78;
},
{
glyphname = O;
lastChange = "2025-05-28 22:00:22 +0000";
layers = (
{
hints = (
{
name = _corner.round;
origin = (0,1);
type = Corner;
},
{
name = _corner.round;
origin = (0,2);
type = Corner;
},
{
name = _corner.round;
origin = (0,0);
type = Corner;
},
{
name = _corner.round;
origin = (0,3);
type = Corner;
}
);
layerId = m01;
shapes = (
{
closed = 1;
nodes = (
(50,0,l),
(486,0,l),
(486,700,l),
(50,700,l)
);
},
{
closed = 1;
nodes = (
(170,672,l),
(125,640,l),
(411,640,l),
(366,672,l),
(366,27,l),
(411,60,l),
(125,60,l),
(170,27,l)
);
}
);
width = 536;
}
);
unicode = 79;
},
{
glyphname = P;
lastChange = "2025-05-28 22:00:57 +0000";
layers = (
{
hints = (
{
name = _corner.round;
origin = (0,3);
type = Corner;
},
{
name = _corner.round;
options = 2;
origin = (0,4);
scale = (-1,1);
type = Corner;
}
);
layerId = m01;
shapes = (
{
closed = 1;
nodes = (
(50,0,l),
(170,0,l),
(170,383,l),
(486,383,l),
(486,700,l),
(50,700,l)
);
},
{
closed = 1;
nodes = (
(170,675,l),
(125,640,l),
(411,640,l),
(366,675,l),
(366,410,l),
(411,443,l),
(125,443,l),
(170,410,l)
);
}
);
width = 536;
}
);
unicode = 80;
},
{
glyphname = Q;
lastChange = "2025-05-28 22:01:54 +0000";
layers = (
{
hints = (
{
name = _corner.round;
origin = (0,0);
type = Corner;
},
{
name = _corner.round;
origin = (0,3);
type = Corner;
},
{
name = _corner.round;
origin = (0,1);
type = Corner;
},
{
name = _corner.round;
origin = (0,2);
type = Corner;
}
);
layerId = m01;
shapes = (
{
closed = 1;
nodes = (
(50,0,l),
(486,0,l),
(486,700,l),
(50,700,l)
);
},
{
closed = 1;
nodes = (
(170,665,l),
(125,640,l),
(411,640,l),
(366,665,l),
(366,35,l),
(411,60,l),
(125,60,l),
(170,35,l)
);
},
{
closed = 1;
nodes = (
(306,25,l),
(306,-112,l),
(366,-112,l),
(366,25,l)
);
}
);
width = 536;
}
);
unicode = 81;
},
{
glyphname = R;
lastChange = "2025-05-28 22:02:23 +0000";
layers = (
{
hints = (
{
name = _corner.round;
origin = (0,7);
type = Corner;
},
{
name = _corner.round;
options = 2;
origin = (0,8);
scale = (-1,1);
type = Corner;
},
{
name = _corner.round;
origin = (0,7);
type = Corner;
},
{
name = _corner.round;
origin = (2,2);
type = Corner;
}
);
layerId = m01;
shapes = (
{
closed = 1;
nodes = (
(50,0,l),
(170,0,l),
(170,669,l),
(125,640,l),
(411,640,l),
(366,669,l),
(366,413,l),
(486,413,l),
(486,700,l),
(50,700,l)
);
},
{
closed = 1;
nodes = (
(111,383,l),
(420,383,l),
(420,443,l),
(111,443,l)
);
},
{
closed = 1;
nodes = (
(366,0,l),
(486,0,l),
(486,413,l),
(366,413,l)
);
}
);
width = 536;
}
);
unicode = 82;
},
{
glyphname = S;
lastChange = "2025-05-28 22:03:01 +0000";
layers = (
{
hints = (
{
name = _corner.round;
origin = (0,1);
type = Corner;
},
{
name = _corner.round;
options = 2;
origin = (0,0);
scale = (-1,1);
type = Corner;
},
{
name = _corner.round;
origin = (0,11);
type = Corner;
},
{
name = _corner.round;
origin = (0,12);
type = Corner;
},
{
name = _corner.round;
origin = (0,20);
type = Corner;
},
{
name = _corner.round;
origin = (0,21);
type = Corner;
},
{
name = _corner.round;
origin = (0,10);
type = Corner;
},
{
name = _corner.round;
origin = (0,9);
type = Corner;
}
);
layerId = m01;
shapes = (
{
closed = 1;
nodes = (
(60,700,l),
(60,383,l),
(411,383,l),
(366,418,l),
(366,25,l),
(411,60,l),
(125,60,l),
(170,25,l),
(170,120,l),
(50,120,l),
(50,0,l),
(486,0,l),
(486,443,l),
(135,443,l),
(180,408,l),
(180,675,l),
(135,640,l),
(411,640,l),
(366,675,l),
(366,580,l),
(486,580,l),
(486,700,l)
);
}
);
width = 536;
}
);
unicode = 83;
},
{
glyphname = T;
lastChange = "2025-05-29 19:07:52 +0000";
layers = (
{
layerId = m01;
shapes = (
{
closed = 1;
nodes = (
(20,700,l),
(20,640,l),
(253,640,l),
(208,675,l),
(208,0,l),
(328,0,l),
(328,675,l),
(283,640,l),
(516,640,l),
(516,700,l)
);
}
);
width = 536;
}
);
unicode = 84;
},
{
glyphname = U;
lastChange = "2025-05-28 22:03:36 +0000";
layers = (
{
hints = (
{
name = _corner.round;
origin = (0,0);
type = Corner;
},
{
name = _corner.round;
origin = (0,1);
type = Corner;
}
);
layerId = m01;
shapes = (
{
closed = 1;
nodes = (
(50,0,l),
(486,0,l),
(486,700,l),
(366,700,l),
(366,26,l),
(411,60,l),
(125,60,l),
(170,26,l),
(170,700,l),
(50,700,l)
);
}
);
width = 536;
}
);
unicode = 85;
},
{
glyphname = V;
lastChange = "2025-05-28 22:03:50 +0000";
layers = (
{
layerId = m01;
shapes = (
{
closed = 1;
nodes = (
(211,0,l),
(331,0,l),
(486,700,l),
(426,700,l),
(290,89,l),
(310,89,l),
(170,700,l),
(50,700,l)
);
}
);
width = 536;
}
);
unicode = 86;
},
{
glyphname = W;
lastChange = "2025-05-28 22:04:32 +0000";
layers = (
{
layerId = m01;
shapes = (
{
closed = 1;
nodes = (
(170,0,l),
(281,361,l),
(255,361,l),
(366,0,l),
(486,0,l),
(486,700,l),
(366,700,l),
(366,154,l),
(379,156,l),
(299,418,l),
(237,418,l),
(157,156,l),
(170,154,l),
(170,700,l),
(50,700,l),
(50,0,l)
);
}
);
width = 536;
}
);
unicode = 87;
},
{
glyphname = X;
lastChange = "2025-05-29 13:43:02 +0000";
layers = (
{
layerId = m01;
shapes = (
{
closed = 1;
nodes = (
(302,319,l),
(497,700,l),
(430,700,l),
(264,376,l)
);
},
{
closed = 1;
nodes = (
(51,700,l),
(367,0,l),
(499,0,l),
(183,700,l)
);
},
{
closed = 1;
nodes = (
(243,376,l),
(51,0,l),
(118,0,l),
(281,319,l)
);
}
);
width = 536;
}
);
unicode = 88;
},
{
glyphname = Y;
lastChange = "2025-05-28 22:05:05 +0000";
layers = (
{
hints = (
{
name = _corner.round;
origin = (0,7);
type = Corner;
},
{
name = _corner.round;
options = 2;
origin = (0,7);
scale = (-1,1);
type = Corner;
},
{
name = _corner.round;
options = 2;
origin = (0,6);
scale = (-1,1);
type = Corner;
}
);
layerId = m01;
shapes = (
{
closed = 1;
nodes = (
(366,413,l),
(411,443,l),
(125,443,l),
(170,413,l),
(170,700,l),
(50,700,l),
(50,383,l),
(486,383,l),
(486,700,l),
(366,700,l)
);
},
{
closed = 1;
nodes = (
(211,0,l),
(331,0,l),
(331,413,l),
(211,413,l)
);
}
);
width = 536;
}
);
unicode = 89;
},
{
glyphname = Z;
lastChange = "2025-05-28 22:05:24 +0000";
layers = (
{
layerId = m01;
shapes = (
{
closed = 1;
nodes = (
(50,640,l),
(411,640,l),
(388,680,l),
(50,60,l),
(50,0,l),
(486,0,l),
(486,60,l),
(125,60,l),
(148,20,l),
(486,640,l),
(486,700,l),
(50,700,l)
);
}
);
width = 536;
}
);
unicode = 90;
},
{
glyphname = a;
lastChange = "2025-05-28 22:06:11 +0000";
layers = (
{
hints = (
{
name = _corner.round;
origin = (0,3);
type = Corner;
},
{
name = _corner.round;
origin = (0,0);
type = Corner;
},
{
name = _corner.round;
origin = (0,1);
type = Corner;
}
);
layerId = m01;
shapes = (
{
closed = 1;
nodes = (
(50,349,l),
(50,0,l),
(486,0,l),
(486,500,l),
(50,500,l),
(50,440,l),
(411,440,l),
(366,475,l),
(366,324,l),
(411,349,l)
);
},
{
closed = 1;
nodes = (
(170,314,l),
(125,289,l),
(411,289,l),
(366,314,l),
(366,33,l),
(411,60,l),
(125,60,l),
(170,33,l)
);
}
);
width = 536;
}
);
unicode = 97;
},
{
glyphname = b;
lastChange = "2025-05-28 22:06:40 +0000";
layers = (
{
hints = (
{
name = _corner.round;
origin = (0,3);
type = Corner;
},
{
name = _corner.round;
origin = (0,2);
type = Corner;
}
);
layerId = m01;
shapes = (
{
closed = 1;
nodes = (
(50,700,l),
(50,0,l),
(486,0,l),
(486,500,l),
(125,500,l),
(170,474,l),
(170,700,l)
);
},
{
closed = 1;
nodes = (
(170,464,l),
(125,440,l),
(411,440,l),
(366,464,l),
(366,26,l),
(411,60,l),
(125,60,l),
(170,26,l)
);
}
);
width = 536;
}
);
unicode = 98;
},
{
glyphname = c;
lastChange = "2025-05-28 22:06:56 +0000";
layers = (
{
hints = (
{
name = _corner.round;
origin = (0,1);
type = Corner;
},
{
name = _corner.round;
origin = (0,0);
type = Corner;
}
);
layerId = m01;
shapes = (
{
closed = 1;
nodes = (
(50,500,l),
(50,0,l),
(486,0,l),
(486,60,l),
(125,60,l),
(170,25,l),
(170,475,l),
(125,440,l),
(486,440,l),
(486,500,l)
);
}
);
width = 536;
}
);
unicode = 99;
},
{
glyphname = d;
lastChange = "2025-05-28 22:07:26 +0000";
layers = (
{
hints = (
{
name = _corner.round;
origin = (0,3);
type = Corner;
},
{
name = _corner.round;
origin = (0,2);
type = Corner;
}
);
layerId = m01;
shapes = (
{
closed = 1;
nodes = (
(366,478,l),
(411,500,l),
(50,500,l),
(50,0,l),
(486,0,l),
(486,700,l),
(366,700,l)
);
},
{
closed = 1;
nodes = (
(170,465,l),
(125,440,l),
(411,440,l),
(366,465,l),
(366,35,l),
(411,60,l),
(125,60,l),
(170,35,l)
);
}
);
width = 536;
}
);
unicode = 100;
},
{
glyphname = e;
lastChange = "2025-05-28 22:08:06 +0000";
layers = (
{
hints = (
{
name = _corner.round;
origin = (0,0);
type = Corner;
},
{
name = _corner.round;
origin = (0,1);
type = Corner;
},
{
name = _corner.round;
origin = (0,8);
type = Corner;
},
{
name = _corner.round;
origin = (0,7);
type = Corner;
}
);
layerId = m01;
shapes = (
{
closed = 1;
nodes = (
(50,500,l),
(50,0,l),
(486,0,l),
(486,60,l),
(125,60,l),
(170,27,l),
(170,289,l),
(486,289,l),
(486,500,l)
);
},
{
closed = 1;
nodes = (
(170,475,l),
(125,440,l),
(411,440,l),
(366,475,l),
(366,314,l),
(411,349,l),
(125,349,l),
(170,314,l)
);
}
);
width = 536;
}
);
unicode = 101;
},
{
glyphname = f;
lastChange = "2025-05-28 22:08:25 +0000";
layers = (
{
hints = (
{
name = _corner.round;
origin = (0,0);
type = Corner;
}
);
layerId = m01;
shapes = (
{
closed = 1;
nodes = (
(186,700,l),
(186,0,l),
(306,0,l),
(306,671,l),
(261,640,l),
(486,640,l),
(486,700,l)
);
},
{
closed = 1;
nodes = (
(50,440,l),
(486,440,l),
(486,500,l),
(50,500,l)
);
}
);
width = 536;
}
);
unicode = 102;
},
{
glyphname = g;
lastChange = "2025-05-28 22:09:06 +0000";
layers = (
{
hints = (
{
name = _corner.round;
origin = (0,0);
type = Corner;
},
{
name = _corner.round;
origin = (0,1);
type = Corner;
},
{
name = _corner.round;
origin = (0,8);
type = Corner;
}
);
layerId = m01;
shapes = (
{
closed = 1;
nodes = (
(50,500,l),
(50,0,l),
(411,0,l),
(366,20,l),
(366,-169,l),
(411,-140,l),
(50,-140,l),
(50,-200,l),
(486,-200,l),
(486,500,l)
);
},
{
closed = 1;
nodes = (
(170,465,l),
(125,440,l),
(411,440,l),
(366,465,l),
(366,35,l),
(411,60,l),
(125,60,l),
(170,35,l)
);
}
);
width = 536;
}
);
unicode = 103;
},
{
glyphname = h;
lastChange = "2025-05-28 22:09:38 +0000";
layers = (
{
hints = (
{
name = _corner.round;
origin = (1,6);
type = Corner;
}
);
layerId = m01;
shapes = (
{
closed = 1;
nodes = (
(50,700,l),
(50,0,l),
(170,0,l),
(170,700,l)
);
},
{
closed = 1;
nodes = (
(80,500,l),
(80,440,l),
(411,440,l),
(366,485,l),
(366,0,l),
(486,0,l),
(486,500,l)
);
}
);
width = 536;
}
);
unicode = 104;
},
{
glyphname = i;
lastChange = "2025-05-28 22:10:08 +0000";
layers = (
{
layerId = m01;
shapes = (
{
closed = 1;
nodes = (
(83,500,l),
(83,440,l),
(253,440,l),
(208,475,l),
(208,25,l),
(253,60,l),
(50,60,l),
(50,0,l),
(486,0,l),
(486,60,l),
(283,60,l),
(328,25,l),
(328,500,l)
);
},
{
closed = 1;
nodes = (
(301,580,o),
(328,606,o),
(328,640,cs),
(328,673,o),
(301,700,o),
(268,700,cs),
(234,700,o),
(208,673,o),
(208,640,cs),
(208,606,o),
(234,580,o),
(268,580,cs)
);
}
);
width = 536;
}
);
unicode = 105;
},
{
glyphname = j;
lastChange = "2025-05-29 17:32:52 +0000";
layers = (
{
guides = (
{
angle = 180;
pos = (110,60);
}
);
hints = (
{
name = _corner.round;
origin = (1,2);
type = Corner;
}
);
layerId = m01;
shapes = (
{
closed = 1;
nodes = (
(459,580,o),
(486,606,o),
(486,640,cs),
(486,673,o),
(459,700,o),
(426,700,cs),
(392,700,o),
(366,673,o),
(366,640,cs),
(366,606,o),
(392,580,o),
(426,580,cs)
);
},
{
closed = 1;
nodes = (
(50,-140,l),
(50,-200,l),
(486,-200,l),
(486,500,l),
(241,500,l),
(241,440,l),
(411,440,l),
(366,485,l),
(366,-140,l)
);
}
);
width = 536;
}
);
unicode = 106;
},
{
glyphname = k;
lastChange = "2025-04-27 01:21:27 +0000";
layers = (
{
hints = (
{
name = _corner.round;
origin = (2,1);
type = Corner;
},
{
name = _corner.round;
origin = (3,2);
type = Corner;
}
);
layerId = m01;
shapes = (
{
closed = 1;
nodes = (
(50,700,l),
(50,0,l),
(170,0,l),
(170,700,l)
);
},
{
closed = 1;
nodes = (
(131,289,l),
(420,289,l),
(420,349,l),
(131,349,l)
);
},
{
closed = 1;
nodes = (
(366,317,l),
(486,317,l),
(486,500,l),
(366,500,l)
);
},
{
closed = 1;
nodes = (
(366,0,l),
(486,0,l),
(486,318,l),
(366,318,l)
);
}
);
width = 536;
}
);
unicode = 107;
},
{
glyphname = l;
lastChange = "2025-05-28 22:35:05 +0000";
layers = (
{
layerId = m01;
shapes = (
{
closed = 1;
nodes = (
(50,60,l),
(50,0,l),
(486,0,l),
(486,60,l)
);
},
{
closed = 1;
nodes = (
(328,28,l),
(328,700,l),
(83,700,l),
(83,640,l),
(253,640,l),
(208,675,l),
(208,28,l)
);
}
);
width = 536;
}
);
unicode = 108;
},
{
glyphname = m;
lastChange = "2025-05-28 23:11:09 +0000";
layers = (
{
hints = (
{
name = _corner.round;
origin = (1,6);
type = Corner;
},
{
name = _corner.round;
origin = (0,6);
type = Corner;
},
{
name = _corner.round;
origin = (0,6);
type = Corner;
},
{
name = _corner.round;
origin = (0,6);
type = Corner;
},
{
name = _corner.round;
options = 2;
origin = (0,6);
scale = (-1,1);
type = Corner;
},
{
name = _corner.round;
origin = (0,6);
type = Corner;
},
{
name = _corner.round;
type = Corner;
},
{
name = _corner.round;
type = Corner;
},
{
name = _corner.round;
origin = (0,6);
type = Corner;
},
{
name = _corner.round;
origin = (1,0);
type = Corner;
}
);
layerId = m01;
shapes = (
{
closed = 1;
nodes = (
(50,500,l),
(50,0,l),
(170,0,l),
(170,465,l),
(125,440,l),
(287,440,l),
(287,500,l)
);
},
{
closed = 1;
nodes = (
(287,500,l),
(287,440,l),
(451,440,l),
(406,465,l),
(406,0,l),
(486,0,l),
(486,500,l)
);
},
{
closed = 1;
nodes = (
(202,440,l),
(247,465,l),
(249,58,l),
(329,58,l),
(327,465,l),
(372,440,l)
);
}
);
width = 536;
}
);
unicode = 109;
},
{
glyphname = n;
lastChange = "2025-05-28 22:14:44 +0000";
layers = (
{
hints = (
{
name = _corner.round;
origin = (0,9);
type = Corner;
}
);
layerId = m01;
shapes = (
{
closed = 1;
nodes = (
(50,500,l),
(50,0,l),
(170,0,l),
(170,475,l),
(125,440,l),
(411,440,l),
(366,475,l),
(366,0,l),
(486,0,l),
(486,500,l)
);
}
);
width = 536;
}
);
unicode = 110;
},
{
glyphname = o;
lastChange = "2025-05-28 22:15:10 +0000";
layers = (
{
hints = (
{
name = _corner.round;
origin = (0,3);
type = Corner;
},
{
name = _corner.round;
origin = (0,0);
type = Corner;
},
{
name = _corner.round;
options = 2;
origin = (0,1);
scale = (-1,1);
type = Corner;
},
{
name = _corner.round;
options = 2;
origin = (0,2);
scale = (-1,1);
type = Corner;
}
);
layerId = m01;
shapes = (
{
closed = 1;
nodes = (
(50,500,l),
(50,0,l),
(486,0,l),
(486,500,l)
);
},
{
closed = 1;
nodes = (
(170,465,l),
(125,440,l),
(411,440,l),
(366,465,l),
(366,35,l),
(411,60,l),
(125,60,l),
(170,35,l)
);
}
);
width = 536;
}
);
unicode = 111;
},
{
glyphname = p;
lastChange = "2025-05-28 22:15:46 +0000";
layers = (
{
hints = (
{
name = _corner.round;
origin = (0,2);
type = Corner;
},
{
name = _corner.round;
origin = (0,1);
type = Corner;
}
);
layerId = m01;
shapes = (
{
closed = 1;
nodes = (
(119,0,l),
(486,0,l),
(486,500,l),
(50,500,l),
(50,-200,l),
(170,-200,l),
(170,475,l),
(125,440,l),
(411,440,l),
(366,475,l),
(366,25,l),
(411,60,l),
(119,60,l)
);
}
);
width = 536;
}
);
unicode = 112;
},
{
glyphname = q;
lastChange = "2025-05-28 22:16:12 +0000";
layers = (
{
hints = (
{
name = _corner.round;
origin = (0,4);
type = Corner;
},
{
name = _corner.round;
origin = (0,3);
type = Corner;
}
);
layerId = m01;
shapes = (
{
closed = 1;
nodes = (
(366,-200,l),
(486,-200,l),
(486,500,l),
(50,500,l),
(50,0,l),
(428,1,l),
(428,61,l),
(125,60,l),
(170,15,l),
(170,475,l),
(125,440,l),
(411,440,l),
(366,475,l)
);
}
);
width = 536;
}
);
unicode = 113;
},
{
glyphname = r;
lastChange = "2025-05-28 22:16:27 +0000";
layers = (
{
hints = (
{
name = _corner.round;
origin = (0,9);
type = Corner;
}
);
layerId = m01;
shapes = (
{
closed = 1;
nodes = (
(50,500,l),
(50,0,l),
(170,0,l),
(170,471,l),
(125,440,l),
(411,440,l),
(366,471,l),
(366,354,l),
(486,354,l),
(486,500,l)
);
}
);
width = 536;
}
);
unicode = 114;
},
{
glyphname = s;
lastChange = "2025-05-28 22:17:06 +0000";
layers = (
{
hints = (
{
name = _corner.round;
origin = (0,8);
type = Corner;
},
{
name = _corner.round;
options = 2;
origin = (0,9);
scale = (-1,1);
type = Corner;
},
{
name = _corner.round;
origin = (0,1);
type = Corner;
},
{
name = _corner.round;
options = 2;
origin = (0,0);
scale = (-1,1);
type = Corner;
}
);
layerId = m01;
shapes = (
{
closed = 1;
nodes = (
(50,500,l),
(50,289,l),
(411,289,l),
(366,324,l),
(366,25,l),
(411,60,l),
(51,60,l),
(51,0,l),
(486,0,l),
(486,349,l),
(125,349,l),
(170,314,l),
(170,475,l),
(125,440,l),
(486,440,l),
(486,500,l)
);
}
);
width = 536;
}
);
unicode = 115;
},
{
glyphname = t;
lastChange = "2025-05-28 22:17:21 +0000";
layers = (
{
hints = (
{
name = _corner.round;
origin = (0,1);
type = Corner;
}
);
layerId = m01;
shapes = (
{
closed = 1;
nodes = (
(208,700,l),
(208,0,l),
(486,0,l),
(486,60,l),
(266,60,l),
(328,25,l),
(328,700,l)
);
},
{
closed = 1;
nodes = (
(50,440,l),
(486,440,l),
(486,500,l),
(50,500,l)
);
}
);
width = 536;
}
);
unicode = 116;
},
{
glyphname = u;
lastChange = "2025-05-28 22:18:17 +0000";
layers = (
{
hints = (
{
name = _corner.round;
origin = (0,9);
type = Corner;
}
);
layerId = m01;
shapes = (
{
closed = 1;
nodes = (
(486,0,l),
(486,500,l),
(366,500,l),
(366,25,l),
(411,60,l),
(125,60,l),
(170,25,l),
(170,500,l),
(50,500,l),
(50,0,l)
);
}
);
width = 536;
}
);
unicode = 117;
},
{
glyphname = v;
lastChange = "2025-05-28 22:18:23 +0000";
layers = (
{
layerId = m01;
shapes = (
{
closed = 1;
nodes = (
(334,0,l),
(486,500,l),
(426,500,l),
(290,52,l),
(317,52,l),
(170,500,l),
(50,500,l),
(214,0,l)
);
}
);
width = 536;
}
);
unicode = 118;
},
{
glyphname = w;
lastChange = "2025-05-28 23:11:46 +0000";
layers = (
{
hints = (
{
name = _corner.round;
origin = (1,0);
type = Corner;
},
{
name = _corner.round;
origin = (0,0);
type = Corner;
},
{
name = _corner.round;
origin = (0,0);
type = Corner;
},
{
name = _corner.round;
origin = (0,0);
type = Corner;
},
{
name = _corner.round;
origin = (1,6);
type = Corner;
}
);
layerId = m01;
shapes = (
{
closed = 1;
nodes = (
(287,0,l),
(287,60,l),
(125,60,l),
(170,35,l),
(170,500,l),
(50,500,l),
(50,0,l)
);
},
{
closed = 1;
nodes = (
(486,0,l),
(486,500,l),
(406,502,l),
(406,35,l),
(451,60,l),
(287,60,l),
(287,0,l)
);
},
{
closed = 1;
nodes = (
(329,440,l),
(249,440,l),
(247,35,l),
(202,60,l),
(372,60,l),
(327,35,l)
);
}
);
width = 536;
}
);
unicode = 119;
},
{
glyphname = x;
lastChange = "2025-05-29 14:08:45 +0000";
layers = (
{
layerId = m01;
shapes = (
{
closed = 1;
nodes = (
(275,232,l),
(460,500,l),
(400,500,l),
(243,272,l)
);
},
{
closed = 1;
nodes = (
(50,500,l),
(366,0,l),
(486,0,l),
(170,500,l)
);
},
{
closed = 1;
nodes = (
(218,244,l),
(50,0,l),
(110,0,l),
(250,204,l)
);
}
);
width = 536;
}
);
unicode = 120;
},
{
glyphname = y;
lastChange = "2025-05-28 22:20:28 +0000";
layers = (
{
hints = (
{
name = _corner.round;
origin = (0,5);
type = Corner;
},
{
name = _corner.round;
origin = (1,4);
type = Corner;
}
);
layerId = m01;
shapes = (
{
closed = 1;
nodes = (
(427,60,l),
(126,60,l),
(171,25,l),
(170,500,l),
(50,500,l),
(51,0,l),
(427,0,l)
);
},
{
closed = 1;
nodes = (
(366,-175,l),
(411,-140,l),
(50,-140,l),
(50,-200,l),
(486,-200,l),
(486,500,l),
(366,500,l)
);
}
);
width = 536;
}
);
unicode = 121;
},
{
glyphname = z;
lastChange = "2025-05-28 22:20:54 +0000";
layers = (
{
layerId = m01;
shapes = (
{
closed = 1;
nodes = (
(50,0,l),
(486,0,l),
(486,60,l),
(125,60,l),
(141,25,l),
(486,440,l),
(486,500,l),
(50,500,l),
(50,440,l),
(411,440,l),
(395,475,l),
(50,60,l)
);
}
);
width = 536;
}
);
unicode = 122;
},
{
glyphname = m.001;
lastChange = "2025-05-28 22:14:11 +0000";
layers = (
{
hints = (
{
name = _corner.round;
origin = (1,6);
type = Corner;
},
{
name = _corner.round;
origin = (0,6);
type = Corner;
},
{
name = _corner.round;
origin = (0,6);
type = Corner;
},
{
name = _corner.round;
origin = (0,6);
type = Corner;
},
{
name = _corner.round;
options = 2;
origin = (0,6);
scale = (-1,1);
type = Corner;
},
{
name = _corner.round;
origin = (0,6);
type = Corner;
},
{
name = _corner.round;
type = Corner;
},
{
name = _corner.round;
type = Corner;
},
{
name = _corner.round;
origin = (0,6);
type = Corner;
},
{
name = _corner.round;
origin = (1,0);
type = Corner;
}
);
layerId = m01;
shapes = (
{
closed = 1;
nodes = (
(50,500,l),
(50,0,l),
(170,0,l),
(170,465,l),
(125,440,l),
(287,440,l),
(287,500,l)
);
},
{
closed = 1;
nodes = (
(287,500,l),
(287,440,l),
(451,440,l),
(406,465,l),
(406,0,l),
(486,0,l),
(486,500,l)
);
},
{
closed = 1;
nodes = (
(202,440,l),
(247,465,l),
(249,0,l),
(329,0,l),
(327,465,l),
(372,440,l)
);
}
);
width = 536;
}
);
},
{
glyphname = zero;
lastChange = "2025-05-28 21:52:41 +0000";
layers = (
{
hints = (
{
name = _corner.round;
origin = (3,1);
type = Corner;
},
{
name = _corner.round;
origin = (3,2);
type = Corner;
},
{
name = _corner.round;
origin = (0,0);
type = Corner;
},
{
name = _corner.round;
origin = (0,3);
type = Corner;
}
);
layerId = m01;
shapes = (
{
closed = 1;
nodes = (
(50,0,l),
(170,0,l),
(170,700,l),
(50,700,l)
);
},
{
closed = 1;
nodes = (
(117,640,l),
(426,640,l),
(426,700,l),
(117,700,l)
);
},
{
closed = 1;
nodes = (
(117,0,l),
(426,0,l),
(426,60,l),
(117,60,l)
);
},
{
closed = 1;
nodes = (
(366,0,l),
(486,0,l),
(486,700,l),
(366,700,l)
);
},
{
closed = 1;
nodes = (
(110,60,l),
(170,60,l),
(426,640,l),
(366,640,l)
);
}
);
width = 536;
}
);
unicode = 48;
},
{
glyphname = one;
lastChange = "2025-05-28 22:26:57 +0000";
layers = (
{
layerId = m01;
shapes = (
{
closed = 1;
nodes = (
(50,60,l),
(50,0,l),
(486,0,l),
(486,60,l)
);
},
{
closed = 1;
nodes = (
(208,28,l),
(328,28,l),
(328,700,l),
(208,700,l)
);
},
{
closed = 1;
nodes = (
(108,575,l),
(239,649,l),
(208,700,l),
(77,626,l)
);
}
);
width = 536;
}
);
unicode = 49;
},
{
glyphname = two;
lastChange = "2025-05-28 22:34:30 +0000";
layers = (
{
hints = (
{
name = _corner.round;
origin = (1,2);
type = Corner;
},
{
name = _corner.round;
origin = (2,0);
type = Corner;
},
{
name = _corner.round;
origin = (2,1);
type = Corner;
},
{
name = _corner.round;
origin = (1,1);
type = Corner;
}
);
layerId = m01;
shapes = (
{
closed = 1;
nodes = (
(111,383,l),
(420,383,l),
(420,443,l),
(111,443,l)
);
},
{
closed = 1;
nodes = (
(366,383,l),
(486,383,l),
(486,700,l),
(366,700,l)
);
},
{
closed = 1;
nodes = (
(50,443,l),
(50,0,l),
(170,0,l),
(170,443,l)
);
},
{
closed = 1;
nodes = (
(50,640,l),
(391,640,l),
(391,700,l),
(50,700,l)
);
},
{
closed = 1;
nodes = (
(142,0,l),
(486,0,l),
(486,60,l),
(142,60,l)
);
}
);
width = 536;
}
);
unicode = 50;
},
{
glyphname = three;
lastChange = "2025-05-28 22:36:36 +0000";
layers = (
{
hints = (
{
name = _corner.round;
origin = (1,1);
type = Corner;
},
{
name = _corner.round;
origin = (1,2);
type = Corner;
},
{
name = _corner.round;
origin = (1,2);
type = Corner;
},
{
name = _corner.round;
origin = (2,2);
type = Corner;
},
{
name = _corner.round;
origin = (1,2);
type = Corner;
},
{
name = _corner.round;
options = 2;
origin = (2,2);
scale = (-1,1);
type = Corner;
},
{
name = _corner.round;
origin = (2,1);
type = Corner;
}
);
layerId = m01;
shapes = (
{
closed = 1;
nodes = (
(138,383,l),
(420,383,l),
(420,443,l),
(138,443,l)
);
},
{
closed = 1;
nodes = (
(366,0,l),
(486,0,l),
(486,413,l),
(366,413,l)
);
},
{
closed = 1;
nodes = (
(366,413,l),
(486,413,l),
(486,700,l),
(366,700,l)
);
},
{
closed = 1;
nodes = (
(50,640,l),
(391,640,l),
(391,700,l),
(50,700,l)
);
},
{
closed = 1;
nodes = (
(50,0,l),
(395,0,l),
(395,60,l),
(50,60,l)
);
}
);
width = 536;
}
);
unicode = 51;
},
{
glyphname = four;
lastChange = "2025-05-28 22:43:56 +0000";
layers = (
{
layerId = m01;
shapes = (
{
closed = 1;
nodes = (
(308,0,l),
(428,0,l),
(428,700,l),
(308,700,l)
);
},
{
closed = 1;
nodes = (
(50,153,l),
(486,153,l),
(486,213,l),
(50,213,l)
);
},
{
closed = 1;
nodes = (
(308,700,l),
(50,213,l),
(119,213,l),
(377,700,l)
);
}
);
width = 536;
}
);
unicode = 52;
},
{
glyphname = five;
lastChange = "2025-05-28 22:32:33 +0000";
layers = (
{
hints = (
{
name = _corner.round;
origin = (1,1);
type = Corner;
},
{
name = _corner.round;
origin = (1,2);
type = Corner;
},
{
name = _corner.round;
origin = (1,2);
type = Corner;
},
{
name = _corner.round;
origin = (2,0);
type = Corner;
},
{
name = _corner.round;
origin = (2,1);
type = Corner;
}
);
layerId = m01;
shapes = (
{
closed = 1;
nodes = (
(111,383,l),
(420,383,l),
(420,443,l),
(111,443,l)
);
},
{
closed = 1;
nodes = (
(366,0,l),
(486,0,l),
(486,443,l),
(366,443,l)
);
},
{
closed = 1;
nodes = (
(50,700,l),
(50,383,l),
(170,383,l),
(170,700,l)
);
},
{
closed = 1;
nodes = (
(138,640,l),
(486,640,l),
(486,700,l),
(138,700,l)
);
},
{
closed = 1;
nodes = (
(50,0,l),
(395,0,l),
(395,60,l),
(50,60,l)
);
}
);
width = 600;
}
);
unicode = 53;
},
{
glyphname = six;
lastChange = "2025-05-28 22:31:49 +0000";
layers = (
{
hints = (
{
name = _corner.round;
origin = (1,1);
type = Corner;
},
{
name = _corner.round;
origin = (1,2);
type = Corner;
},
{
name = _corner.round;
origin = (2,0);
type = Corner;
},
{
name = _corner.round;
origin = (2,1);
type = Corner;
},
{
name = _corner.round;
origin = (2,0);
type = Corner;
}
);
layerId = m01;
shapes = (
{
closed = 1;
nodes = (
(111,383,l),
(420,383,l),
(420,443,l),
(111,443,l)
);
},
{
closed = 1;
nodes = (
(366,0,l),
(486,0,l),
(486,443,l),
(366,443,l)
);
},
{
closed = 1;
nodes = (
(50,700,l),
(50,0,l),
(170,0,l),
(170,700,l)
);
},
{
closed = 1;
nodes = (
(138,640,l),
(486,640,l),
(486,700,l),
(138,700,l)
);
},
{
closed = 1;
nodes = (
(142,0,l),
(395,0,l),
(395,60,l),
(142,60,l)
);
}
);
width = 536;
}
);
unicode = 54;
},
{
glyphname = seven;
lastChange = "2025-05-28 22:38:22 +0000";
layers = (
{
layerId = m01;
shapes = (
{
closed = 1;
nodes = (
(50,640,l),
(466,640,l),
(486,700,l),
(50,700,l)
);
},
{
closed = 1;
nodes = (
(120,0,l),
(240,0,l),
(486,700,l),
(366,700,l)
);
}
);
width = 536;
}
);
unicode = 55;
},
{
glyphname = eight;
lastChange = "2025-05-28 22:29:25 +0000";
layers = (
{
hints = (
{
name = _corner.round;
origin = (1,2);
type = Corner;
},
{
name = _corner.round;
origin = (1,2);
type = Corner;
},
{
name = _corner.round;
origin = (3,0);
type = Corner;
},
{
name = _corner.round;
origin = (3,0);
type = Corner;
},
{
name = _corner.round;
origin = (1,2);
type = Corner;
},
{
name = _corner.round;
origin = (3,0);
type = Corner;
},
{
name = _corner.round;
origin = (4,0);
type = Corner;
},
{
name = _corner.round;
origin = (2,1);
type = Corner;
},
{
name = _corner.round;
origin = (4,1);
type = Corner;
},
{
name = _corner.round;
origin = (2,2);
type = Corner;
},
{
name = _corner.round;
origin = (3,1);
type = Corner;
},
{
name = _corner.round;
origin = (1,1);
type = Corner;
}
);
layerId = m01;
shapes = (
{
closed = 1;
nodes = (
(111,383,l),
(420,383,l),
(420,443,l),
(111,443,l)
);
},
{
closed = 1;
nodes = (
(366,0,l),
(486,0,l),
(486,413,l),
(366,413,l)
);
},
{
closed = 1;
nodes = (
(366,413,l),
(486,413,l),
(486,700,l),
(366,700,l)
);
},
{
closed = 1;
nodes = (
(50,413,l),
(50,0,l),
(170,0,l),
(170,413,l)
);
},
{
closed = 1;
nodes = (
(50,700,l),
(50,413,l),
(170,413,l),
(170,700,l)
);
},
{
closed = 1;
nodes = (
(138,640,l),
(391,640,l),
(391,700,l),
(138,700,l)
);
},
{
closed = 1;
nodes = (
(142,0,l),
(395,0,l),
(395,60,l),
(142,60,l)
);
}
);
width = 536;
}
);
unicode = 56;
},
{
glyphname = nine;
lastChange = "2025-05-28 22:31:15 +0000";
layers = (
{
hints = (
{
name = _corner.round;
origin = (1,1);
type = Corner;
},
{
name = _corner.round;
origin = (1,2);
type = Corner;
},
{
name = _corner.round;
origin = (1,2);
type = Corner;
},
{
name = _corner.round;
origin = (2,0);
type = Corner;
},
{
name = _corner.round;
origin = (2,1);
type = Corner;
}
);
layerId = m01;
shapes = (
{
closed = 1;
nodes = (
(111,383,l),
(420,383,l),
(420,443,l),
(111,443,l)
);
},
{
closed = 1;
nodes = (
(366,0,l),
(486,0,l),
(486,700,l),
(366,700,l)
);
},
{
closed = 1;
nodes = (
(50,700,l),
(50,383,l),
(170,383,l),
(170,700,l)
);
},
{
closed = 1;
nodes = (
(138,640,l),
(391,640,l),
(391,700,l),
(138,700,l)
);
},
{
closed = 1;
nodes = (
(50,0,l),
(395,0,l),
(395,60,l),
(50,60,l)
);
}
);
width = 536;
}
);
unicode = 57;
},
{
glyphname = period;
lastChange = "2025-05-29 18:43:14 +0000";
layers = (
{
layerId = m01;
shapes = (
{
closed = 1;
nodes = (
(301,0,o),
(328,26,o),
(328,60,cs),
(328,93,o),
(301,120,o),
(268,120,cs),
(234,120,o),
(208,93,o),
(208,60,cs),
(208,26,o),
(234,0,o),
(268,0,cs)
);
}
);
width = 536;
}
);
unicode = 46;
},
{
glyphname = comma;
lastChange = "2025-05-29 18:43:22 +0000";
layers = (
{
hints = (
{
name = _corner.round;
origin = (0,3);
type = Corner;
},
{
name = _corner.round;
origin = (0,1);
type = Corner;
}
);
layerId = m01;
shapes = (
{
closed = 1;
nodes = (
(218,-154,l),
(318,-154,l),
(318,116,l),
(218,116,l)
);
}
);
width = 536;
}
);
unicode = 44;
},
{
glyphname = semicolon;
lastChange = "2025-05-29 17:50:19 +0000";
layers = (
{
hints = (
{
name = _corner.round;
origin = (1,3);
type = Corner;
},
{
name = _corner.round;
origin = (1,1);
type = Corner;
}
);
layerId = m01;
shapes = (
{
closed = 1;
nodes = (
(301,342,o),
(328,368,o),
(328,402,cs),
(328,435,o),
(301,462,o),
(268,462,cs),
(234,462,o),
(208,435,o),
(208,402,cs),
(208,368,o),
(234,342,o),
(268,342,cs)
);
},
{
closed = 1;
nodes = (
(213,-154,l),
(323,-153,l),
(323,117,l),
(213,116,l)
);
}
);
width = 536;
}
);
unicode = 59;
},
{
glyphname = exclam;
lastChange = "2025-05-29 17:48:58 +0000";
layers = (
{
hints = (
{
name = _corner.round;
origin = (1,3);
type = Corner;
},
{
name = _corner.round;
origin = (1,1);
type = Corner;
}
);
layerId = m01;
shapes = (
{
closed = 1;
nodes = (
(340,0,o),
(367,26,o),
(367,60,cs),
(367,93,o),
(340,120,o),
(307,120,cs),
(273,120,o),
(247,93,o),
(247,60,cs),
(247,26,o),
(273,0,o),
(307,0,cs)
);
},
{
closed = 1;
nodes = (
(257,200,l),
(357,200,l),
(357,700,l),
(257,700,l)
);
}
);
width = 600;
}
);
unicode = 33;
},
{
glyphname = asterisk;
lastChange = "2025-05-29 19:46:23 +0000";
layers = (
{
hints = (
{
name = _corner.round;
origin = (0,1);
type = Corner;
},
{
name = _corner.round;
origin = (0,3);
type = Corner;
},
{
name = _corner.round;
origin = (2,0);
type = Corner;
},
{
name = _corner.round;
origin = (2,2);
type = Corner;
},
{
name = _corner.round;
origin = (1,1);
type = Corner;
},
{
name = _corner.round;
origin = (1,3);
type = Corner;
}
);
layerId = m01;
shapes = (
{
closed = 1;
nodes = (
(238,371,l),
(298,371,l),
(298,716,l),
(238,716,l)
);
},
{
closed = 1;
nodes = (
(134,656,l),
(104,604,l),
(402,431,l),
(432,483,l)
);
},
{
closed = 1;
nodes = (
(134,431,l),
(432,604,l),
(402,656,l),
(104,483,l)
);
}
);
width = 536;
}
);
unicode = 42;
},
{
glyphname = slash;
lastChange = "2025-05-29 19:36:40 +0000";
layers = (
{
hints = (
{
name = _corner.round;
origin = (0,3);
type = Corner;
},
{
name = _corner.round;
origin = (0,1);
type = Corner;
}
);
layerId = m01;
shapes = (
{
closed = 1;
nodes = (
(58,-110,l),
(158,-110,l),
(478,800,l),
(378,800,l)
);
}
);
width = 536;
}
);
unicode = 47;
},
{
glyphname = hyphen;
lastChange = "2025-05-29 18:43:35 +0000";
layers = (
{
hints = (
{
name = _corner.round;
origin = (0,3);
type = Corner;
},
{
name = _corner.round;
origin = (0,1);
type = Corner;
}
);
layerId = m01;
shapes = (
{
closed = 1;
nodes = (
(101,257,l),
(434,257,l),
(434,317,l),
(101,317,l)
);
}
);
width = 536;
}
);
unicode = 45;
},
{
glyphname = parenleft;
lastChange = "2025-05-29 19:26:07 +0000";
layers = (
{
hints = (
{
name = _corner.round;
origin = (0,11);
type = Corner;
},
{
name = _corner.round;
origin = (0,1);
type = Corner;
}
);
layerId = m01;
shapes = (
{
closed = 1;
nodes = (
(109,345,l),
(169,-110,l),
(427,-110,l),
(427,-50,l),
(236,-50,l),
(287,-95,l),
(229,345,l),
(287,785,l),
(236,740,l),
(427,740,l),
(427,800,l),
(169,800,l)
);
}
);
width = 536;
}
);
unicode = 40;
},
{
glyphname = braceleft;
lastChange = "2025-05-29 19:32:22 +0000";
layers = (
{
hints = (
{
name = _corner.round;
origin = (0,9);
type = Corner;
},
{
name = _corner.round;
origin = (0,0);
type = Corner;
}
);
layerId = m01;
shapes = (
{
closed = 1;
nodes = (
(169,-110,l),
(427,-110,l),
(427,-50,l),
(244,-50,l),
(289,-80,l),
(289,770,l),
(244,740,l),
(427,740,l),
(427,800,l),
(169,800,l)
);
},
{
closed = 1;
nodes = (
(109,285,l),
(237,285,l),
(237,405,l),
(109,405,l)
);
}
);
width = 536;
}
);
unicode = 123;
},
{
glyphname = bracketleft;
lastChange = "2025-05-29 19:16:45 +0000";
layers = (
{
hints = (
{
name = _corner.round;
origin = (0,9);
type = Corner;
},
{
name = _corner.round;
origin = (0,0);
type = Corner;
}
);
layerId = m01;
shapes = (
{
closed = 1;
nodes = (
(139,-110,l),
(397,-110,l),
(397,-50,l),
(214,-50,l),
(259,-80,l),
(259,770,l),
(214,740,l),
(397,740,l),
(397,800,l),
(139,800,l)
);
}
);
width = 536;
}
);
unicode = 91;
},
{
glyphname = bar;
lastChange = "2025-05-29 19:35:18 +0000";
layers = (
{
hints = (
{
name = _corner.round;
origin = (0,3);
type = Corner;
},
{
name = _corner.round;
origin = (0,1);
type = Corner;
}
);
layerId = m01;
shapes = (
{
closed = 1;
nodes = (
(218,-110,l),
(318,-110,l),
(318,800,l),
(218,800,l)
);
}
);
width = 536;
}
);
unicode = 124;
},
{
glyphname = dollar;
lastChange = "2025-05-29 18:42:34 +0000";
layers = (
{
hints = (
{
name = _corner.round;
origin = (1,3);
type = Corner;
},
{
name = _corner.round;
origin = (1,1);
type = Corner;
}
);
layerId = m01;
shapes = (
{
ref = S;
},
{
closed = 1;
nodes = (
(243,-100,l),
(309,-100,l),
(309,800,l),
(243,800,l)
);
}
);
width = 536;
}
);
unicode = 36;
},
{
glyphname = less;
lastChange = "2025-05-29 19:42:07 +0000";
layers = (
{
hints = (
{
name = _corner.round;
origin = (0,2);
type = Corner;
},
{
name = _corner.round;
origin = (0,5);
type = Corner;
}
);
layerId = m01;
shapes = (
{
closed = 1;
nodes = (
(50,233,l),
(486,0,l),
(486,100,l),
(104,304,l),
(104,262,l),
(486,466,l),
(486,566,l),
(50,333,l)
);
}
);
width = 536;
}
);
unicode = 60;
},
{
export = 0;
glyphname = _corner.round;
lastChange = "2025-04-26 22:03:08 +0000";
layers = (
{
layerId = m01;
shapes = (
{
closed = 0;
nodes = (
(0,60,l),
(0,26,o),
(26,0,o),
(60,0,c)
);
}
